<svg width="24" height="24" viewBox="0 0 24 24" fill="none" xmlns="http://www.w3.org/2000/svg">
<path d="M19.707 3.00001H4.34703C4.1753 2.99922 4.00512 3.03246 3.84631 3.09781C3.6875 3.16316 3.54321 3.25933 3.42178 3.38076C3.30035 3.50219 3.20418 3.64648 3.13882 3.80529C3.07347 3.9641 3.04024 4.13429 3.04103 4.30601V19.694C3.04103 20.39 3.62103 21 4.34703 21H19.647C19.8188 21.0009 19.9891 20.9678 20.1481 20.9025C20.307 20.8372 20.4514 20.7411 20.5729 20.6196C20.6945 20.4982 20.7907 20.3538 20.8561 20.195C20.9216 20.0361 20.9548 19.8658 20.954 19.694V4.27701C21.013 3.58101 20.432 3.00001 19.707 3.00001ZM8.35403 18.3H5.71303V9.73501H8.35503L8.35403 18.3ZM7.01903 8.54501C6.81668 8.54608 6.61612 8.50698 6.42898 8.43001C6.24183 8.35303 6.07182 8.23969 5.92878 8.09656C5.78574 7.95342 5.67251 7.78333 5.59565 7.59614C5.5188 7.40895 5.47984 7.20837 5.48103 7.00601C5.48103 6.16501 6.17703 5.46801 7.01903 5.46801C7.86103 5.46801 8.55903 6.16501 8.55903 7.00601C8.55903 7.84701 7.91903 8.54501 7.01903 8.54501ZM18.371 18.3H15.729V14.148C15.729 13.161 15.7 11.855 14.336 11.855C12.942 11.855 12.739 12.958 12.739 14.061V18.3H10.097V9.73501H12.681V10.925H12.71C13.087 10.229 13.93 9.53201 15.236 9.53201C17.936 9.53201 18.429 11.274 18.429 13.655V18.3H18.371Z" fill="black"/>
</svg>
