<svg width="24" height="24" viewBox="0 0 24 24" fill="none" xmlns="http://www.w3.org/2000/svg">
<path fill-rule="evenodd" clip-rule="evenodd" d="M6.27273 3C5.40475 3 4.57232 3.3448 3.95856 3.95856C3.3448 4.57232 3 5.40475 3 6.27273V17.7273C3 18.5953 3.3448 19.4277 3.95856 20.0414C4.57232 20.6552 5.40475 21 6.27273 21H17.7273C18.5953 21 19.4277 20.6552 20.0414 20.0414C20.6552 19.4277 21 18.5953 21 17.7273V6.27273C21 5.40475 20.6552 4.57232 20.0414 3.95856C19.4277 3.3448 18.5953 3 17.7273 3H6.27273ZM5.99945 5.86364C5.90989 5.89692 5.82933 5.95066 5.76421 6.02058C5.69908 6.0905 5.65118 6.17465 5.62432 6.26635C5.59746 6.35805 5.59239 6.45475 5.60951 6.54876C5.62662 6.64276 5.66545 6.73147 5.72291 6.80782L10.3162 12.9033L5.47664 18.0946L5.44064 18.1364H7.11545L11.0673 13.899L14.1044 17.931C14.1748 18.0243 14.2705 18.0956 14.3801 18.1364H17.9981C18.0875 18.1029 18.1679 18.049 18.2329 17.979C18.2978 17.909 18.3455 17.8249 18.3722 17.7332C18.3989 17.6415 18.4038 17.5449 18.3866 17.4509C18.3694 17.357 18.3305 17.2684 18.273 17.1922L13.6797 11.0967L18.5594 5.86364H16.8821L12.9303 10.1018L9.89155 6.06982C9.8212 5.97619 9.72552 5.90464 9.61582 5.86364H5.99945ZM14.9013 16.9484L7.44355 7.05164H9.09545L16.5524 16.9475L14.9013 16.9484Z" fill="black"/>
</svg>
